<svg xmlns="http://www.w3.org/2000/svg" viewBox="0 0 1052.36 465.19"><defs><style>.cls-1{fill:#333436;}</style></defs><g id="Layer_2" data-name="Layer 2"><g id="Layer_1-2" data-name="Layer 1"><path class="cls-1" d="M512.56,27.25V437.94H27.25V27.25H512.56M539.81,0H0V465.19H539.81V0Z"/><path class="cls-1" d="M432.41,294.4H400.25a2.45,2.45,0,0,0-2.45,2.45v15.83a2.45,2.45,0,0,0,2.45,2.45h13.23l0,8.63s-8.39,8.78-22.84,6.59c-14.15-2.14-24.83-13.23-24.83-27.83a28.07,28.07,0,0,1,23-27.61,24.71,24.71,0,0,1,12.54.57,27.84,27.84,0,0,1,9.4,4.64c.31.23.61.45.9.68l.08.06.18.14c1.2,1,1.78,2,4.05-.23l10.16-10,.58-.58a2.47,2.47,0,0,0,0-3.5A50.22,50.22,0,0,0,399,252.68,52.29,52.29,0,0,0,347.75,277a50.37,50.37,0,0,0-3.87,42.61A51.44,51.44,0,0,0,392,352.74c19.24,0,32.82-7,41.91-18.88a4.07,4.07,0,0,0,.43-1.21v-36.3A2,2,0,0,0,432.41,294.4Z"/><path class="cls-1" d="M317.16,111.42H297.44a2.94,2.94,0,0,0-2.94,2.94v34.83H254V114.36a2.94,2.94,0,0,0-2.94-2.94H231.35a2.94,2.94,0,0,0-2.94,2.94v92.49a2.94,2.94,0,0,0,2.94,2.94h19.72a2.94,2.94,0,0,0,2.94-2.94V172.28H294.5v34.57a2.94,2.94,0,0,0,2.94,2.94h19.72a2.93,2.93,0,0,0,2.94-2.94V114.36A2.94,2.94,0,0,0,317.16,111.42Z"/><path class="cls-1" d="M197.4,111.33H109.49a2,2,0,0,0-2,2v20a2,2,0,0,0,2,2h30.88v72.51a2,2,0,0,0,2,2h22.49a2,2,0,0,0,2-2V135.32H197.4a2,2,0,0,0,2-2v-20A2,2,0,0,0,197.4,111.33Z"/><path class="cls-1" d="M447.15,263.89a.92.92,0,0,1-.38.09A.92.92,0,0,0,447.15,263.89Z"/><path class="cls-1" d="M446.77,262.09h-1.83v.08h1.83a.9.9,0,0,1,.82.91s0-.05,0-.08A.86.86,0,0,0,446.77,262.09Z"/><path class="cls-1" d="M449.27,263.13a2.47,2.47,0,0,0-2.5-2.53h-3.16a.38.38,0,0,0-.38.39v6.67a.38.38,0,0,0,.38.39h1a.39.39,0,0,0,.39-.39v-2.18h1.05l1.13,2.28a.43.43,0,0,0,.36.29h1.1a.38.38,0,0,0,.35-.55l-1.16-2.12A2.34,2.34,0,0,0,449.27,263.13Zm-1.67,0a.82.82,0,0,1-.45.74.92.92,0,0,1-.38.09h-1.83v-1.89h1.83a.86.86,0,0,1,.83.91s0,.05,0,.08S447.6,263.12,447.6,263.15Z"/><path class="cls-1" d="M447.15,263.89a.82.82,0,0,0,.45-.74s0,0,0-.07A.89.89,0,0,1,447.15,263.89Z"/><path class="cls-1" d="M446,256a8.39,8.39,0,1,0,8.4,8.4A8.41,8.41,0,0,0,446,256Zm0,14.95a6.55,6.55,0,1,1,6.55-6.55A6.56,6.56,0,0,1,446,270.9Z"/><path class="cls-1" d="M427.22,131.59v-17.8a2.45,2.45,0,0,0-2.45-2.45H353.93a2.46,2.46,0,0,0-2.46,2.45v93.94a2.06,2.06,0,0,0,2.06,2.06l71.63-.06a2.06,2.06,0,0,0,2.06-2.06v-18.2a2.45,2.45,0,0,0-2.45-2.45H380.34a2.46,2.46,0,0,1-2.46-2.45v-13h31.55a2.46,2.46,0,0,0,2.46-2.45V152.41a2.45,2.45,0,0,0-2.46-2.45H377.88V136.5a2.45,2.45,0,0,1,2.46-2.45h44.43A2.45,2.45,0,0,0,427.22,131.59Z"/><path class="cls-1" d="M313.57,274v-17.8a2.45,2.45,0,0,0-2.45-2.45H240.27a2.45,2.45,0,0,0-2.45,2.45v93.95c0,1.13.92,2.06,3.42,2.06l71.63-.07c-.22,0,.7-.92.7-2.06V331.9a2.45,2.45,0,0,0-2.45-2.45H266.68a2.45,2.45,0,0,1-2.45-2.45V313.86h31.55a2.45,2.45,0,0,0,2.45-2.45V294.73a2.45,2.45,0,0,0-2.45-2.45H264.23V278.93a2.45,2.45,0,0,1,2.45-2.45h44.44A2.46,2.46,0,0,0,313.57,274Z"/><path class="cls-1" d="M209.15,352.23a2,2,0,0,0,1.45-3.29l-6.77-7.4h0l-33-37.45a1.75,1.75,0,0,1-.07-2.22l32.79-42.51,1.85-2.3a2,2,0,0,0-1.53-3.19H179.76a2,2,0,0,0-1.55.76l-30.41,39a.4.4,0,0,1-.71-.24V256.31a2.46,2.46,0,0,0-2.45-2.46h-20.7a2.46,2.46,0,0,0-2.46,2.46v93.46a2.46,2.46,0,0,0,2.46,2.46h20.7a2.46,2.46,0,0,0,2.45-2.46V310.83l34.47,40.31a3.1,3.1,0,0,0,2.36,1.09h25.23Z"/><path class="cls-1" d="M1025.11,0H512.56V465.19h539.8V0ZM757.34,321.43c-26,31.21-81.62,45.42-119.27,29.75-20.66-8.59-35.79-23.29-40.06-46.65-4.13-22.56,10.58-51.22,40.1-48.6,17,1.5,29.21,13.91,29.67,31.7.46,18.07-12,33.36-29,34.15-8.16.38-16.41-1.4-25.73-2.31,4.42,12.14,13.7,19.33,24.14,25.3s21.77,7.86,33.66,7.92c13.42.08,22.25-6.51,26.89-18.44a105.64,105.64,0,0,0,6-22.66,239.12,239.12,0,0,0-.19-72.06c-5.29-34-36-46.38-63.44-25.39-6.54,5-11.62,12-17.32,18.05-1.56,1.67-2.93,3.52-4.38,5.3l-2.23-.86c1.19-6.06,2.42-12.11,3.56-18.18,6.43-34.3,12.95-68.6,19.16-102.94,1-5.5,2.55-8.29,8.87-7.24,34,5.62,68.06,4.57,102.08-.17,10.38-1.45,11.17-.25,7.76,9.4-10.6,29.92-33.33,43.35-63.43,44.66-16.66.73-33.46-2.07-50.22-2.81-2.72-.12-7.6,1.73-8,3.5-3.82,15.75-6.92,31.68-10.08,47.59-.44,2.18-.06,4.52-.06,7.68,8.24-5.39,15-10.94,22.58-14.58,40.54-19.4,104-3.22,122.1,41.19C781.8,272.65,776.4,298.56,757.34,321.43Zm194.32-10.8C922.15,371,847.81,371.34,814.09,330.4c-16.61-20.16-24.59-43.45-28.71-68.49-1.67-10.12-2.14-20.43-2.92-28.29,1.74-37.6,7.61-71.47,29.88-100.28,25.42-32.89,69.12-42.34,104.9-21.22,19.4,11.44,32.32,29.77,39.82,51C974.66,212.86,975.23,262.38,951.66,310.63Z"/><path class="cls-1" d="M891.91,112.59c-4.1-5.61-9.26-8.72-15.75-8.72-27.84,0-31.28,56.52-31.28,126.24s2.32,126.24,31.28,126.24,31.27-56.52,31.27-126.24c0-48-1.63-89.73-11.72-111.09A39.37,39.37,0,0,0,891.91,112.59Z"/></g></g></svg>